{
	"asset":{
		"generator":"Khronos glTF Blender I/O v4.4.56",
		"version":"2.0"
	},
	"extensionsUsed":[
		"KHR_texture_transform"
	],
	"extensionsRequired":[
		"KHR_texture_transform"
	],
	"scene":0,
	"scenes":[
		{
			"name":"Scene",
			"nodes":[
				0
			]
		}
	],
	"nodes":[
		{
			"mesh":0,
			"name":"Plane.001"
		}
	],
	"materials":[
		{
			"doubleSided":true,
			"name":"Material",
			"normalTexture":{
				"extensions":{
					"KHR_texture_transform":{
						"offset":[
							0,
							-24
						],
						"scale":[
							25,
							25
						]
					}
				},
				"index":0
			},
			"pbrMetallicRoughness":{
				"baseColorTexture":{
					"extensions":{
						"KHR_texture_transform":{
							"offset":[
								0,
								-24
							],
							"scale":[
								25,
								25
							]
						}
					},
					"index":1
				},
				"metallicRoughnessTexture":{
					"extensions":{
						"KHR_texture_transform":{
							"offset":[
								0,
								-24
							],
							"scale":[
								25,
								25
							]
						}
					},
					"index":2
				}
			}
		}
	],
	"meshes":[
		{
			"name":"Plane",
			"primitives":[
				{
					"attributes":{
						"POSITION":0,
						"NORMAL":1,
						"TEXCOORD_0":2
					},
					"indices":3,
					"material":0
				}
			]
		}
	],
	"textures":[
		{
			"sampler":0,
			"source":0
		},
		{
			"sampler":0,
			"source":1
		},
		{
			"sampler":0,
			"source":2
		}
	],
	"images":[
		{
			"mimeType":"image/png",
			"name":"Poliigon_GrassPatchyGround_4585_Normal",
			"uri":"Poliigon_GrassPatchyGround_4585_Normal.png"
		},
		{
			"mimeType":"image/jpeg",
			"name":"Poliigon_GrassPatchyGround_4585_BaseColor",
			"uri":"Poliigon_GrassPatchyGround_4585_BaseColor.jpg"
		},
		{
			"mimeType":"image/png",
			"name":"Poliigon_GrassPatchyGround_4585_Metallic-Poliigon_GrassPatchyGround_4585_Roughness",
			"uri":"Poliigon_GrassPatchyGround_4585_Metallic-Poliigon_GrassPatchyGround_4585_Roughness.png"
		}
	],
	"accessors":[
		{
			"bufferView":0,
			"componentType":5126,
			"count":16641,
			"max":[
				25,
				3.4261763095855713,
				24.985408782958984
			],
			"min":[
				-25,
				-1.5738189220428467,
				-25.014591217041016
			],
			"type":"VEC3"
		},
		{
			"bufferView":1,
			"componentType":5126,
			"count":16641,
			"type":"VEC3"
		},
		{
			"bufferView":2,
			"componentType":5126,
			"count":16641,
			"type":"VEC2"
		},
		{
			"bufferView":3,
			"componentType":5123,
			"count":98304,
			"type":"SCALAR"
		}
	],
	"bufferViews":[
		{
			"buffer":0,
			"byteLength":199692,
			"byteOffset":0,
			"target":34962
		},
		{
			"buffer":0,
			"byteLength":199692,
			"byteOffset":199692,
			"target":34962
		},
		{
			"buffer":0,
			"byteLength":133128,
			"byteOffset":399384,
			"target":34962
		},
		{
			"buffer":0,
			"byteLength":196608,
			"byteOffset":532512,
			"target":34963
		}
	],
	"samplers":[
		{
			"magFilter":9729,
			"minFilter":9987
		}
	],
	"buffers":[
		{
			"byteLength":729120,
			"uri":"map_test.bin"
		}
	]
}
